ply
format ascii 1.0
element vertex 151
property float x
property float y
property float z
element face 205
property list uchar int vertex_indices
end_header
383.878 357.878 0
396.439 383.074 0
409 408.27 0
397.023 356.357 0
406.129 377.321 0
415.236 398.285 0
411.306 344.694 0
417.539 364.581 0
423.771 384.467 0
427.164 330.836 0
431.731 350.784 0
436.297 370.733 0
446.993 319.48 0
449.477 338.759 0
451.962 358.038 0
470.593 315.713 0
469.183 329.715 0
467.774 343.716 0
479.245 320.087 0
483.652 331.652 0
476.311 338.697 0
198 317.06 0
210.559 306.232 0
223.118 295.404 0
187.616 300.872 0
199.183 290.811 0
210.75 280.75 0
176.569 285.14 0
187.711 275.104 0
198.854 265.069 0
166.754 268.513 0
176.88 258.89 0
187.006 249.268 0
156.959 251.872 0
166.596 242.277 0
176.233 232.682 0
147.79 234.917 0
156.159 225.91 0
164.529 216.902 0
145.084 227.13 0
147.477 218.523 0
155.093 214.907 0
230.47 287.81 0
247.209 281.699 0
263.948 275.588 0
221.884 263.438 0
238.19 257.675 0
254.496 251.913 0
213.126 239.264 0
229.605 233.472 0
246.084 227.68 0
205.98 214.44 0
220.965 209.285 0
235.951 204.13 0
197.751 189.812 0
212.273 184.955 0
226.795 180.098 0
189.803 165.111 0
204.242 160.447 0
218.68 155.783 0
189.551 153.62 0
199.176 145 0
211.272 146.201 0
275 269.786 0
293.076 269.417 0
311.153 269.048 0
274 239.449 0
292.5 239.766 0
311 240.082 0
273.221 209.181 0
292.11 210.267 0
311 211.352 0
275 178.864 0
292 180.768 0
309 182.672 0
275 148.726 0
291.5 151.344 0
308 153.962 0
274 118.388 0
290.5 121.725 0
307 125.062 0
280.89 105.426 0
294 103 0
305.149 112.783 0
323.7 271.3 0
341.85 283.664 0
360 296.029 0
332.514 247.656 0
348.376 258.316 0
364.237 268.976 0
339.698 223.363 0
355.934 232.878 0
372.169 242.393 0
348.533 199.612 0
363.116 207.496 0
377.7 215.38 0
355.184 175.186 0
369.298 181.778 0
383.412 188.37 0
361.873 150.72 0
375.601 156.038 0
389.329 161.356 0
369.192 141.395 0
381.191 140 0
389.464 149.076 0
236.886 666.886 0
296.052 691 0
349 665.639 0
238 575.582 0
292 576.066 0
346 576.549 0
238 522.017 0
291.5 523.15 0
345 524.283 0
237 477.105 0
293.5 478.783 0
350 480.46 0
223.893 433.529 0
279.121 437.86 0
288.934 438.629 0
298.064 439.345 0
352 443.574 0
216.542 400.626 0
266.817 402.843 0
284.956 403.643 0
302.109 404.399 0
354 406.688 0
211.994 370.548 0
255.39 370.323 0
281.152 370.19 0
306.083 370.06 0
356 369.801 0
206.652 342.797 0
244.842 340.304 0
277.512 338.17 0
310.019 336.048 0
358 332.915 0
219.544 323.619 0
228.684 294.316 0
255.398 312.448 0
270.556 277 0
293.822 306.305 0
317.2 274 0
336.305 309.748 0
363.669 461.331 0
377.693 443.298 0
392.966 425.034 0
364.729 329.702 0
368.146 398.816 0
382.293 390.945 0
369.939 363.84 0
3 0 1 3
3 1 4 3
3 1 2 4
3 2 5 4
3 3 4 6
3 4 7 6
3 4 5 7
3 5 8 7
3 6 7 9
3 7 10 9
3 7 8 10
3 8 11 10
3 9 10 12
3 10 13 12
3 10 11 13
3 11 14 13
3 12 13 15
3 13 16 15
3 13 14 16
3 14 17 16
3 15 16 18
3 18 16 19
3 19 16 20
3 16 17 20
3 21 22 24
3 22 25 24
3 22 23 25
3 23 26 25
3 24 25 27
3 25 28 27
3 25 26 28
3 26 29 28
3 27 28 30
3 28 31 30
3 28 29 31
3 29 32 31
3 30 31 33
3 31 34 33
3 31 32 34
3 32 35 34
3 33 34 36
3 34 37 36
3 34 35 37
3 35 38 37
3 36 37 39
3 39 37 40
3 40 37 41
3 37 38 41
3 42 43 45
3 43 46 45
3 43 44 46
3 44 47 46
3 45 46 48
3 46 49 48
3 46 47 49
3 47 50 49
3 48 49 51
3 49 52 51
3 49 50 52
3 50 53 52
3 51 52 54
3 52 55 54
3 52 53 55
3 53 56 55
3 54 55 57
3 55 58 57
3 55 56 58
3 56 59 58
3 57 58 60
3 60 58 61
3 61 58 62
3 58 59 62
3 63 64 66
3 64 67 66
3 64 65 67
3 65 68 67
3 66 67 69
3 67 70 69
3 67 68 70
3 68 71 70
3 69 70 72
3 70 73 72
3 70 71 73
3 71 74 73
3 72 73 75
3 73 76 75
3 73 74 76
3 74 77 76
3 75 76 78
3 76 79 78
3 76 77 79
3 77 80 79
3 78 79 81
3 81 79 82
3 82 79 83
3 79 80 83
3 84 85 87
3 85 88 87
3 85 86 88
3 86 89 88
3 87 88 90
3 88 91 90
3 88 89 91
3 89 92 91
3 90 91 93
3 91 94 93
3 91 92 94
3 92 95 94
3 93 94 96
3 94 97 96
3 94 95 97
3 95 98 97
3 96 97 99
3 97 100 99
3 97 98 100
3 98 101 100
3 99 100 102
3 102 100 103
3 103 100 104
3 100 101 104
3 105 106 108
3 106 109 108
3 106 107 109
3 107 110 109
3 108 109 111
3 109 112 111
3 109 110 112
3 110 113 112
3 111 112 114
3 112 115 114
3 112 113 115
3 113 116 115
3 114 115 117
3 115 118 117
3 118 115 119
3 119 115 120
3 115 116 120
3 120 116 121
3 117 118 122
3 118 123 122
3 118 119 123
3 119 124 123
3 119 120 124
3 120 125 124
3 120 121 125
3 121 126 125
3 122 123 127
3 123 128 127
3 123 124 128
3 124 129 128
3 124 125 129
3 125 130 129
3 125 126 130
3 126 131 130
3 127 128 132
3 128 133 132
3 128 129 133
3 129 134 133
3 129 130 134
3 130 135 134
3 130 131 135
3 131 136 135
3 132 137 21
3 132 133 137
3 133 138 137
3 138 23 137
3 22 137 23
3 22 21 137
3 138 139 42
3 133 139 138
3 133 134 139
3 134 140 139
3 140 44 139
3 43 139 44
3 43 42 139
3 140 141 63
3 134 141 140
3 134 135 141
3 135 142 141
3 142 65 141
3 64 141 65
3 64 63 141
3 142 143 84
3 135 143 142
3 135 136 143
3 136 86 143
3 85 143 86
3 85 84 143
3 121 116 144
3 126 121 144
3 144 148 126
3 144 145 148
3 145 149 148
3 145 146 149
3 146 1 149
3 146 2 1
3 131 126 148
3 131 148 150
3 150 148 149
3 150 149 0
3 0 149 1
3 136 131 150
3 136 150 147
3 147 150 0
3 86 136 147
