ply
format ascii 1.0
comment Made by Golan Levin et al.
comment This file is the bind pose for a generic hand.
element vertex 160
property float x
property float y
element face 212
property list uchar int vertex_index
end_header
197.000 317.000
186.000 301.000
178.000 290.000
169.000 275.000
160.000 260.000
152.000 246.000
146.000 234.000
145.000 225.000
149.000 218.000
158.000 216.000
166.000 220.000
175.000 231.000
184.000 245.000
193.000 259.000
203.000 272.000
211.000 284.000
220.000 296.000
232.000 288.000
225.000 270.000
216.000 250.000
209.000 226.000
202.000 205.000
196.000 183.000
190.000 165.000
190.000 154.000
198.000 145.000
210.000 146.000
219.000 155.000
225.000 172.000
232.000 192.000
240.000 214.000
249.000 236.000
257.000 255.000
262.000 273.000
276.000 271.000
275.000 247.000
274.000 218.000
274.000 190.000
275.000 164.000
275.000 141.000
274.000 118.000
279.000 107.000
290.000 102.000
301.000 106.000
307.000 117.000
309.000 139.000
309.000 163.000
311.000 188.000
312.000 215.000
312.000 243.000
312.000 268.000
326.000 271.000
334.000 249.000
340.000 225.000
346.000 206.000
352.000 187.000
358.000 168.000
361.000 152.000
369.000 142.000
380.000 140.000
391.000 147.000
391.000 160.000
388.000 177.000
383.000 197.000
379.000 216.000
374.000 239.000
367.000 262.000
361.000 295.000
384.000 360.000
398.000 357.000
410.000 348.000
422.000 337.000
436.000 326.000
450.000 318.000
467.000 315.000
480.000 320.000
486.000 332.000
478.000 340.000
468.000 345.000
457.000 353.000
446.000 365.000
434.000 375.000
426.000 385.000
418.000 398.000
409.000 410.000
208.000 306.000
199.000 293.000
190.000 281.000
181.000 267.000
171.000 252.000
163.000 239.000
157.000 229.000
247.000 282.000
241.000 262.000
233.000 242.000
225.000 220.000
218.000 198.000
211.000 178.000
204.000 161.000
294.000 269.000
294.000 245.000
293.000 216.000
293.000 189.000
292.000 164.000
292.000 141.000
291.000 119.000
343.000 282.000
351.000 256.000
358.000 233.000
363.000 212.000
368.000 193.000
373.000 173.000
377.000 156.000
395.000 384.000
406.000 378.000
418.000 368.000
428.000 356.000
441.000 346.000
454.000 336.000
467.000 330.000
237.000 478.000
236.000 667.000
293.000 676.000
352.000 666.000
347.000 481.000
293.000 478.000
237.000 508.000
293.000 506.000
346.000 508.000
238.000 586.000
290.000 585.000
348.000 583.000
222.000 324.000
252.000 306.000
294.000 297.000
335.000 307.000
228.000 296.000
270.000 279.000
318.000 275.000
232.000 457.000
217.000 391.000
205.000 334.000
348.000 455.000
354.000 390.000
360.000 313.000
210.000 356.000
358.000 350.000
244.000 353.000
280.000 352.000
312.000 351.000
284.000 390.000
308.000 389.000
257.000 389.000
371.000 345.000
369.000 377.000
380.000 403.000
366.000 423.000
395.000 423.000
379.000 442.000
364.000 462.000
3 68 69 113
3 69 114 113
3 114 84 113
3 114 83 84
3 69 70 114
3 70 115 114
3 115 83 114
3 115 82 83
3 70 71 115
3 71 116 115
3 116 82 115
3 116 81 82
3 71 72 116
3 72 117 116
3 117 81 116
3 117 80 81
3 72 73 117
3 73 118 117
3 118 80 117
3 118 79 80
3 73 74 118
3 74 119 118
3 119 79 118
3 119 78 79
3 74 75 119
3 75 76 119
3 76 77 119
3 77 78 119
3 85 0 1
3 86 85 1
3 86 16 85
3 15 16 86
3 2 86 1
3 87 86 2
3 87 15 86
3 87 14 15
3 2 3 87
3 3 88 87
3 88 14 87
3 88 13 14
3 4 88 3
3 4 89 88
3 89 13 88
3 89 12 13
3 5 89 4
3 5 90 89
3 90 12 89
3 90 11 12
3 6 90 5
3 6 91 90
3 91 11 90
3 91 10 11
3 6 7 91
3 7 8 91
3 8 9 91
3 9 10 91
3 18 92 17
3 18 93 92
3 93 33 92
3 93 32 33
3 19 93 18
3 19 94 93
3 94 32 93
3 94 31 32
3 20 94 19
3 20 95 94
3 95 31 94
3 95 30 31
3 21 95 20
3 21 96 95
3 96 30 95
3 96 29 30
3 22 96 21
3 22 97 96
3 97 29 96
3 97 28 29
3 23 97 22
3 23 98 97
3 98 28 97
3 98 27 28
3 24 98 23
3 24 25 98
3 25 26 98
3 26 27 98
3 35 99 34
3 35 100 99
3 100 50 99
3 100 49 50
3 36 100 35
3 36 101 100
3 101 49 100
3 101 48 49
3 37 101 36
3 37 102 101
3 102 48 101
3 102 47 48
3 38 102 37
3 38 103 102
3 103 47 102
3 103 46 47
3 39 103 38
3 39 104 103
3 104 46 103
3 104 45 46
3 40 104 39
3 40 105 104
3 105 45 104
3 105 44 45
3 41 105 40
3 41 42 105
3 42 43 105
3 43 44 105
3 52 106 51
3 52 107 106
3 107 67 106
3 107 66 67
3 53 107 52
3 53 108 107
3 108 66 107
3 108 65 66
3 54 108 53
3 54 109 108
3 109 65 108
3 109 64 65
3 55 109 54
3 55 110 109
3 110 64 109
3 110 63 64
3 56 110 55
3 56 111 110
3 111 63 110
3 111 62 63
3 57 111 56
3 57 112 111
3 112 62 111
3 112 61 62
3 58 112 57
3 58 59 112
3 59 60 112
3 60 61 112
3 129 122 121
3 129 130 122
3 130 123 122
3 130 131 123
3 126 130 129
3 126 127 130
3 127 131 130
3 127 128 131
3 120 127 126
3 120 125 127
3 125 128 127
3 125 124 128
3 0 85 132
3 85 16 132
3 16 136 132
3 136 17 133
3 17 92 133
3 92 33 133
3 33 137 133
3 137 34 134
3 34 99 134
3 99 50 134
3 50 138 134
3 138 51 135
3 51 106 135
3 106 67 135
3 0 132 141
3 67 144 135
3 141 147 145
3 141 132 147
3 135 144 146
3 146 149 135
3 134 149 148
3 133 148 147
3 136 147 132
3 136 133 147
3 137 148 133
3 137 134 148
3 138 149 134
3 138 135 149
3 145 152 140
3 145 147 152
3 147 150 152
3 147 148 150
3 148 151 150
3 148 149 151
3 149 143 151
3 149 146 143
3 139 125 120
3 140 125 139
3 140 152 125
3 152 150 125
3 150 151 125
3 151 143 125
3 143 142 125
3 142 124 125
3 142 159 124
3 142 156 159
3 156 158 159
3 156 155 158
3 155 157 158
3 155 113 157
3 113 84 157
3 143 156 142
3 143 154 156
3 154 155 156
3 154 68 155
3 68 113 155
3 146 154 143
3 146 153 154
3 153 68 154
3 144 153 146
