ply
format ascii 1.0
element vertex 129
property float x
property float y
property float z
property float u
property float v
element face 167
property list uchar int vertex_indices
end_header
307.602 245.95 0 629.545 517.189
331.031 254.461 0 678.166 528.524
354.516 262.914 0 726.787 539.86
302.866 253.234 0 621.91 532.615
324.216 260.385 0 665.992 541.872
345.574 267.531 0 710.075 551.13
293.089 260.427 0 604.16 549.128
313.003 266.836 0 645.204 557.271
332.919 273.245 0 686.248 565.415
282.571 269.377 0 585.327 569.319
300.601 274.701 0 622.374 575.749
318.631 280.026 0 659.421 582.18
273.699 281.392 0 570.463 595.226
288.902 285.318 0 601.571 599.53
304.105 289.243 0 632.679 603.835
269.13 296.62 0 564.886 626.528
278.853 297.777 0 584.47 626.591
288.576 298.934 0 604.053 626.655
270.248 303.97 0 568.797 640.874
275.299 309.528 0 580.109 650.753
282.766 304.957 0 593.894 639.956
314.742 126.534 0 649.462 228.338
302.233 136.298 0 621.32 243.104
289.704 146.038 0 593.177 257.871
303.961 119.264 0 631.039 210.287
293.914 127.547 0 608.223 222.917
283.864 135.852 0 585.408 235.547
293.428 111.761 0 613.153 191.71
284.482 119.529 0 592.679 203.665
275.534 127.306 0 572.204 215.619
282.886 104.311 0 595.223 173.164
274.956 111.609 0 576.918 184.552
267.026 118.909 0 558.613 195.939
272.346 96.8723 0 577.289 154.621
265.198 103.94 0 560.607 165.843
258.051 111.009 0 543.924 177.064
260.924 90.9334 0 557.062 138.691
255.576 96.4741 0 544.487 147.581
250.229 102.015 0 531.911 156.472
255.54 89.6442 0 546.964 134.148
249.796 91.3426 0 535.045 135.342
248.283 97.0691 0 529.933 146.028
284.942 150.811 0 582.201 267.197
276.909 164.387 0 561.795 291.553
268.864 177.944 0 541.39 315.909
268.855 148.431 0 551.366 257.37
261.89 161.776 0 533.076 281.455
254.91 175.175 0 514.787 305.54
252.738 146.169 0 520.371 247.555
246.891 158.993 0 504.474 270.875
241.041 171.833 0 488.577 294.194
236.559 144.548 0 489.04 238.879
231.833 156.637 0 475.605 261.1
227.106 168.729 0 462.169 283.321
220.343 143.387 0 457.477 231.07
216.713 154.737 0 446.453 252.202
213.082 166.088 0 435.429 273.333
204.123 142.498 0 425.813 223.789
201.706 152.588 0 417.611 242.85
199.29 162.678 0 409.409 261.911
196.892 144.866 0 410.755 225.992
192.974 151.472 0 400.783 237.674
194.42 158.225 0 401.33 251.474
270.979 184.254 0 541.424 405.319
277.564 203.714 0 559.191 441.989
284.221 223.12 0 576.958 478.658
256.786 188.97 0 514.62 417.298
261.557 205.113 0 527.792 448.106
266.427 221.163 0 540.964 478.913
241.56 189.903 0 484.708 422.237
244.99 204.822 0 494.789 451.097
248.451 219.715 0 504.871 479.957
226.378 189.897 0 454.563 425.432
228.517 203.253 0 461.695 451.514
230.665 216.602 0 468.828 477.596
211.322 188.186 0 424.271 425.242
212.08 200.96 0 428.519 450.478
212.839 213.733 0 432.767 475.714
196.273 187.661 0 394.238 427.422
195.909 198.142 0 395.759 448.34
195.545 208.622 0 397.281 469.257
189.805 190.29 0 381.941 434.035
186.077 196.564 0 375.871 447.309
188.881 204.164 0 383.076 461.82
504.312 193.146 0 1013.8 368.253
502.262 252.006 0 1020 485.779
496.646 310.714 0 1020 603.305
458.213 175.649 0 918.963 341.62
454.003 227.47 0 919.185 445.692
449.066 279.449 0 919.408 549.764
430.432 162.227 0 862.034 319.677
426.393 211.96 0 860.909 419.682
420.768 261.802 0 859.783 519.687
410.143 148.648 0 821.094 295.841
403.03 177.022 0 806.864 353.903
396.289 247.798 0 808.205 497.458
382.896 149.292 0 770.913 294.523
383.579 171.577 0 768.95 338.168
384.104 177.337 0 768.46 349.063
384.104 177.337 0 767.955 360.287
373.81 242.874 0 761.956 493.698
363.672 141.961 0 737.368 274.186
364.263 166.793 0 732.464 323.026
364.6 177.772 0 730.333 344.257
364.6 177.772 0 728.066 366.832
351.532 237.921 0 715.706 489.938
345.836 137.314 0 705.336 259.34
345.498 162.356 0 697.555 308.537
344.983 178.258 0 692.656 339.508
344.983 178.258 0 687.276 373.524
329.255 232.941 0 669.457 486.178
329.184 133.293 0 675.025 246.325
327.677 158.142 0 664.392 294.774
325.301 178.799 0 655.599 334.837
325.301 178.799 0 645.607 380.361
306.782 227.881 0 623.208 482.418
315.216 141.733 0 644.916 258.415
288.961 149.039 0 590.785 264.225
303.841 166.31 0 614.535 303.758
272.762 179.57 0 547.365 321.195
272.762 179.57 0 543.683 397.083
297.045 202.266 0 597.364 434.63
385.224 247.851 0 785.162 501.58
374.279 251.965 0 763.764 513.113
364.386 257.438 0 745.183 526.595
298.771 231.444 0 608.29 490.987
344.798 243.334 0 703.193 502.8
337.958 248.836 0 690.679 515.662
318.454 239.332 0 649.501 501.684
3 0 1 3
3 1 4 3
3 1 2 4
3 2 5 4
3 3 4 6
3 4 7 6
3 4 5 7
3 5 8 7
3 6 7 9
3 7 10 9
3 7 8 10
3 8 11 10
3 9 10 12
3 10 13 12
3 10 11 13
3 11 14 13
3 12 13 15
3 13 16 15
3 13 14 16
3 14 17 16
3 15 16 18
3 18 16 19
3 19 16 20
3 16 17 20
3 21 22 24
3 22 25 24
3 22 23 25
3 23 26 25
3 24 25 27
3 25 28 27
3 25 26 28
3 26 29 28
3 27 28 30
3 28 31 30
3 28 29 31
3 29 32 31
3 30 31 33
3 31 34 33
3 31 32 34
3 32 35 34
3 33 34 36
3 34 37 36
3 34 35 37
3 35 38 37
3 36 37 39
3 39 37 40
3 40 37 41
3 37 38 41
3 42 43 45
3 43 46 45
3 43 44 46
3 44 47 46
3 45 46 48
3 46 49 48
3 46 47 49
3 47 50 49
3 48 49 51
3 49 52 51
3 49 50 52
3 50 53 52
3 51 52 54
3 52 55 54
3 52 53 55
3 53 56 55
3 54 55 57
3 55 58 57
3 55 56 58
3 56 59 58
3 57 58 60
3 60 58 61
3 61 58 62
3 58 59 62
3 63 64 66
3 64 67 66
3 64 65 67
3 65 68 67
3 66 67 69
3 67 70 69
3 67 68 70
3 68 71 70
3 69 70 72
3 70 73 72
3 70 71 73
3 71 74 73
3 72 73 75
3 73 76 75
3 73 74 76
3 74 77 76
3 75 76 78
3 76 79 78
3 76 77 79
3 77 80 79
3 78 79 81
3 81 79 82
3 82 79 83
3 79 80 83
3 84 85 87
3 85 88 87
3 85 86 88
3 86 89 88
3 87 88 90
3 88 91 90
3 88 89 91
3 89 92 91
3 90 91 93
3 91 94 93
3 91 92 94
3 92 95 94
3 93 94 96
3 94 97 96
3 97 94 98
3 94 95 99
3 99 95 100
3 96 97 101
3 97 102 101
3 97 98 102
3 98 103 102
3 99 100 104
3 100 105 104
3 101 102 106
3 102 107 106
3 102 103 107
3 103 108 107
3 104 105 109
3 105 110 109
3 106 107 111
3 107 112 111
3 107 108 112
3 108 113 112
3 109 110 114
3 110 115 114
3 111 116 21
3 111 112 116
3 112 117 116
3 117 23 116
3 22 116 23
3 22 21 116
3 117 118 42
3 112 118 117
3 112 113 118
3 113 119 118
3 119 44 118
3 43 118 44
3 43 42 118
3 120 121 63
3 114 121 120
3 114 115 121
3 115 65 121
3 64 121 65
3 64 63 121
3 100 95 122
3 105 100 122
3 122 126 105
3 122 123 126
3 123 127 126
3 123 124 127
3 124 1 127
3 124 2 1
3 110 105 126
3 110 126 128
3 128 126 127
3 128 127 0
3 0 127 1
3 115 110 128
3 115 128 125
3 125 128 0
3 65 115 125
