ply
format ascii 1.0
element vertex 189
property float x
property float y
property float z
property float u
property float v
element face 243
property list uchar int vertex_indices
end_header
326.412 270.963 0 629.793 519.373
350.488 273.14 0 677.016 530.238
374.61 275.412 0 724.239 541.102
324.454 279.469 0 623.706 535.735
345.857 280.623 0 665.836 543.812
367.274 281.828 0 707.966 551.889
318.284 290.001 0 608.669 554.965
337.723 290.338 0 647.112 560.876
357.168 290.7 0 685.555 566.787
311.94 302.371 0 592.779 577.783
329.229 302.034 0 627.138 581.769
346.52 301.707 0 661.496 585.754
308.375 316.952 0 581.799 605.727
322.536 316.058 0 610.107 607.762
336.698 315.167 0 638.416 609.798
310.147 332.907 0 581.027 637.825
318.614 331.465 0 598.195 637.24
327.081 330.021 0 615.362 636.655
313.141 339.55 0 585.174 651.793
319.545 344.039 0 596.655 662.408
324.901 337.449 0 609.043 650.791
334.066 102.143 0 646.475 225.654
319.57 107.739 0 619.708 241.386
305.09 113.361 0 592.942 257.118
326.495 91.8111 0 628.13 207.677
314.778 96.8766 0 606.683 221.487
303.071 101.939 0 585.236 235.297
319.323 81.173 0 610.485 189.015
308.739 86.2501 0 591.273 202.498
298.157 91.3251 0 572.062 215.982
311.839 70.7398 0 592.292 170.881
302.49 75.747 0 575.495 183.829
293.143 80.7539 0 558.699 196.778
304.652 60.1012 0 574.617 152.252
296.169 65.2541 0 559.574 165.206
287.686 70.4071 0 544.532 178.159
295.822 50.8185 0 554.143 136.84
289.568 55.1998 0 543.247 147.54
283.315 59.5814 0 532.351 158.239
291.034 48.2528 0 543.855 133.352
285.131 49.1156 0 532.493 136.995
282.67 54.3413 0 529.356 148.114
299.323 117.938 0 582.914 267.423
287.274 128.57 0 562.357 292.018
275.261 139.224 0 541.8 316.613
284.638 110.939 0 551.751 257.969
273.723 121.456 0 533.388 282.032
262.824 131.963 0 515.026 306.094
269.991 103.633 0 520.583 247.942
260.349 113.91 0 504.652 271.175
250.712 124.183 0 488.721 294.408
255.132 96.7695 0 489.125 238.881
246.794 106.702 0 475.664 261.048
238.457 116.634 0 462.202 283.214
240.035 90.434 0 457.358 230.943
232.97 100.016 0 446.304 252.031
225.905 109.598 0 435.25 273.119
224.854 84.3373 0 425.493 223.505
219.301 93.167 0 417.202 242.647
213.749 101.997 0 408.911 261.789
217.152 84.3 0 410.259 225.773
211.297 89.3115 0 400.208 237.459
210.461 96.2083 0 400.652 251.346
269.068 181.449 0 540.391 325.313
270.61 197.596 0 538.716 357.72
272.16 213.734 0 537.041 390.128
253.436 182.196 0 509.483 322.038
254.361 197.619 0 506.661 352.819
255.312 213.045 0 503.838 383.601
237.875 183.138 0 478.516 319.136
238.119 198.214 0 474.387 349.01
238.371 213.291 0 470.258 378.884
222.419 184.94 0 447.439 317.949
221.924 198.809 0 442.202 345.207
221.431 212.679 0 436.966 372.466
206.952 186.609 0 416.366 316.492
205.72 199.354 0 410.014 341.302
204.49 212.1 0 403.663 366.111
191.476 188.164 0 385.307 314.808
189.637 198.97 0 378.349 335.597
187.799 209.776 0 371.39 356.387
184.688 190.58 0 371.154 317.493
180.363 196.692 0 360.725 328.238
181.721 204.486 0 361.008 344.059
275.09 220.812 0 541.64 405.086
285.937 237.792 0 558.205 441.918
296.74 254.79 0 574.77 478.75
262.839 229.045 0 515.147 417.746
270.949 243.37 0 526.997 448.51
279.079 257.703 0 538.846 479.273
248.346 233.614 0 485.198 422.473
254.834 247.173 0 494.004 451.228
261.328 260.735 0 502.811 479.983
233.695 237.55 0 455.069 425.887
238.539 249.962 0 460.949 451.88
243.383 262.375 0 466.829 477.874
218.743 239.997 0 424.774 426.267
222.098 252.055 0 427.81 451.113
225.451 264.113 0 430.847 475.96
203.925 243.028 0 394.568 427.837
205.708 253.183 0 395.062 448.455
207.49 263.34 0 395.556 469.073
197.991 246.896 0 381.679 433.716
195.592 253.701 0 374.903 446.458
200.332 260.636 0 382.206 461.588
508.404 174.364 0 1013.99 367.199
516.542 232.377 0 1020 484.33
522.188 290.41 0 1020 601.46
459.272 165.694 0 917.542 341.08
464.175 217.527 0 918.72 445.121
469.864 268.995 0 919.897 549.161
429.886 158.751 0 859.324 322.1
433.578 208.006 0 860.078 420.732
439.087 256.676 0 860.832 519.364
409.1 148.66 0 817.512 298.324
401.893 178.547 0 803.787 357.093
413.133 248.135 0 809.791 497.128
386.488 144.215 0 767.016 292.351
384.02 167.788 0 766.004 340.471
383.466 173.195 0 765.764 351.881
383.389 184.125 0 765.531 362.934
390.023 249.216 0 762.786 493.452
372.35 131.816 0 733.435 272.274
367.065 157.111 0 729.214 324.286
364.873 167.795 0 727.401 346.621
363.969 189.911 0 725.582 369.033
366.803 250.479 0 715.782 489.777
358.208 122.185 0 701.388 257.734
350.959 146.833 0 694.091 308.834
346.474 162.451 0 689.439 341.417
344.05 195.857 0 684.602 375.29
343.493 251.827 0 668.778 486.101
344.727 113.346 0 671.352 244.424
335.79 137.121 0 660.97 294.263
328.432 157.211 0 652.21 336.313
323.693 201.933 0 642.761 381.678
320.114 253.253 0 621.774 482.425
329.541 117.262 0 642.484 256.971
303.696 116.521 0 591.139 263.541
311.411 138.318 0 613.04 304.031
277.85 142.521 0 547.842 322.005
299.379 194.108 0 596.634 359.199
275.741 216.537 0 543.722 396.799
304.061 231.582 0 595.757 434.913
402.114 251.199 0 785.891 500.301
391.581 258.746 0 762.522 512.488
383.162 267.295 0 743.403 527.248
313.56 258.98 0 607.335 491.949
361.396 258.026 0 702.86 503.264
355.968 265.582 0 689.938 516.751
334.971 261.389 0 649.286 502.737
382.704 178.644 0 765.764 351.881
363.344 178.743 0 727.401 346.621
344.185 178.841 0 689.439 341.417
325.397 178.937 0 652.21 336.313
272.726 179.205 0 547.842 322.005
274.335 144.281 0 540.391 325.313
271.973 160.19 0 538.716 357.72
269.6 175.979 0 537.041 390.128
258.53 141.299 0 509.483 322.038
255.806 156.431 0 506.661 352.819
253.319 171.594 0 503.838 383.601
242.817 138.671 0 478.516 319.136
239.594 153.405 0 474.387 349.01
236.579 168.118 0 470.258 378.884
227.069 137.008 0 447.439 317.949
223.446 150.43 0 442.202 345.207
219.967 163.824 0 436.966 372.466
211.362 135.255 0 416.366 316.492
207.301 147.424 0 410.014 341.302
203.337 159.58 0 403.663 366.111
195.691 133.414 0 385.307 314.808
191.437 143.538 0 378.349 335.597
187.405 153.741 0 371.39 356.387
188.436 134.296 0 371.154 317.493
182.875 139.346 0 360.725 328.238
182.549 147.264 0 361.008 344.059
401.893 178.547 0 803.787 357.093
383.466 173.195 0 765.764 351.881
382.704 178.644 0 765.531 362.934
364.873 167.795 0 727.401 346.621
363.344 178.743 0 725.582 369.033
346.474 162.451 0 689.439 341.417
344.185 178.841 0 684.602 375.29
328.432 157.211 0 652.21 336.313
325.397 178.937 0 642.761 381.678
277.85 142.521 0 547.842 322.005
300.994 164.648 0 596.634 359.199
272.726 179.205 0 543.722 396.799
3 0 1 3
3 1 4 3
3 1 2 4
3 2 5 4
3 3 4 6
3 4 7 6
3 4 5 7
3 5 8 7
3 6 7 9
3 7 10 9
3 7 8 10
3 8 11 10
3 9 10 12
3 10 13 12
3 10 11 13
3 11 14 13
3 12 13 15
3 13 16 15
3 13 14 16
3 14 17 16
3 15 16 18
3 18 16 19
3 19 16 20
3 16 17 20
3 21 22 24
3 22 25 24
3 22 23 25
3 23 26 25
3 24 25 27
3 25 28 27
3 25 26 28
3 26 29 28
3 27 28 30
3 28 31 30
3 28 29 31
3 29 32 31
3 30 31 33
3 31 34 33
3 31 32 34
3 32 35 34
3 33 34 36
3 34 37 36
3 34 35 37
3 35 38 37
3 36 37 39
3 39 37 40
3 40 37 41
3 37 38 41
3 42 43 45
3 43 46 45
3 43 44 46
3 44 47 46
3 45 46 48
3 46 49 48
3 46 47 49
3 47 50 49
3 48 49 51
3 49 52 51
3 49 50 52
3 50 53 52
3 51 52 54
3 52 55 54
3 52 53 55
3 53 56 55
3 54 55 57
3 55 58 57
3 55 56 58
3 56 59 58
3 57 58 60
3 60 58 61
3 61 58 62
3 58 59 62
3 63 64 66
3 64 67 66
3 64 65 67
3 65 68 67
3 66 67 69
3 67 70 69
3 67 68 70
3 68 71 70
3 69 70 72
3 70 73 72
3 70 71 73
3 71 74 73
3 72 73 75
3 73 76 75
3 73 74 76
3 74 77 76
3 75 76 78
3 76 79 78
3 76 77 79
3 77 80 79
3 78 79 81
3 81 79 82
3 82 79 83
3 79 80 83
3 84 85 87
3 85 88 87
3 85 86 88
3 86 89 88
3 87 88 90
3 88 91 90
3 88 89 91
3 89 92 91
3 90 91 93
3 91 94 93
3 91 92 94
3 92 95 94
3 93 94 96
3 94 97 96
3 94 95 97
3 95 98 97
3 96 97 99
3 97 100 99
3 97 98 100
3 98 101 100
3 99 100 102
3 102 100 103
3 103 100 104
3 100 101 104
3 105 106 108
3 106 109 108
3 106 107 109
3 107 110 109
3 108 109 111
3 109 112 111
3 109 110 112
3 110 113 112
3 111 112 114
3 112 115 114
3 112 113 115
3 113 116 115
3 114 115 117
3 115 118 117
3 118 115 119
3 151 115 120
3 115 116 120
3 120 116 121
3 117 118 122
3 118 123 122
3 118 119 123
3 119 124 123
3 151 120 152
3 120 125 152
3 120 121 125
3 121 126 125
3 122 123 127
3 123 128 127
3 123 124 128
3 124 129 128
3 152 125 153
3 125 130 153
3 125 126 130
3 126 131 130
3 127 128 132
3 128 133 132
3 128 129 133
3 129 134 133
3 153 130 154
3 130 135 154
3 130 131 135
3 131 136 135
3 132 137 21
3 132 133 137
3 133 138 137
3 138 23 137
3 22 137 23
3 22 21 137
3 138 139 42
3 133 139 138
3 133 134 139
3 134 140 139
3 140 44 139
3 43 139 44
3 43 42 139
3 155 141 63
3 154 141 155
3 154 135 141
3 135 142 141
3 142 65 141
3 64 141 65
3 64 63 141
3 142 143 84
3 135 143 142
3 135 136 143
3 136 86 143
3 85 143 86
3 85 84 143
3 121 116 144
3 126 121 144
3 144 148 126
3 144 145 148
3 145 149 148
3 145 146 149
3 146 1 149
3 146 2 1
3 131 126 148
3 131 148 150
3 150 148 149
3 150 149 0
3 0 149 1
3 136 131 150
3 136 150 147
3 147 150 0
3 86 136 147
3 156 157 159
3 157 160 159
3 157 158 160
3 158 161 160
3 159 160 162
3 160 163 162
3 160 161 163
3 161 164 163
3 162 163 165
3 163 166 165
3 163 164 166
3 164 167 166
3 165 166 168
3 166 169 168
3 166 167 169
3 167 170 169
3 168 169 171
3 169 172 171
3 169 170 172
3 170 173 172
3 171 172 174
3 174 172 175
3 175 172 176
3 172 173 176
3 178 177 179
3 178 179 180
3 179 181 180
3 180 181 182
3 181 183 182
3 182 183 184
3 183 185 184
3 186 187 156
3 184 187 186
3 184 185 187
3 185 188 187
3 188 158 187
3 157 187 158
3 157 156 187
